<svg width="145" height="69" viewBox="0 0 145 69" fill="none" xmlns="http://www.w3.org/2000/svg">
<path d="M12.5684 3.81641L4.92188 26H0.298828L9.93164 0.40625H12.8848L12.5684 3.81641ZM18.9668 26L11.3027 3.81641L10.9688 0.40625H13.9395L23.6074 26H18.9668ZM18.5977 16.5078V20.0059H4.67578V16.5078H18.5977ZM63.7439 22.502V26H50.8943V22.502H63.7439ZM52.1248 0.40625V26H47.7127V0.40625H52.1248ZM105.146 22.502V26H91.5581V22.502H105.146ZM92.8062 0.40625V26H88.3941V0.40625H92.8062ZM103.371 11.0938V14.5391H91.5581V11.0938H103.371ZM105.058 0.40625V3.92188H91.5581V0.40625H105.058ZM140.519 18.3184V0.40625H144.913V18.3184C144.913 20.0176 144.55 21.4648 143.824 22.6602C143.097 23.8555 142.107 24.7695 140.853 25.4023C139.599 26.0352 138.175 26.3516 136.581 26.3516C134.952 26.3516 133.505 26.0762 132.24 25.5254C130.986 24.9746 130.001 24.1309 129.286 22.9941C128.572 21.8574 128.214 20.416 128.214 18.6699H132.644C132.644 19.6777 132.802 20.4922 133.118 21.1133C133.447 21.7227 133.904 22.168 134.49 22.4492C135.087 22.7188 135.784 22.8535 136.581 22.8535C137.343 22.8535 138.017 22.6836 138.603 22.3438C139.2 21.9922 139.669 21.4824 140.009 20.8145C140.349 20.1348 140.519 19.3027 140.519 18.3184ZM16.9629 42.4062H21.3574V59.5098C21.3574 61.4551 20.9355 63.084 20.0918 64.3965C19.248 65.709 18.0996 66.6992 16.6465 67.3672C15.2051 68.0234 13.5938 68.3516 11.8125 68.3516C9.97266 68.3516 8.33203 68.0234 6.89062 67.3672C5.44922 66.6992 4.3125 65.709 3.48047 64.3965C2.66016 63.084 2.25 61.4551 2.25 59.5098V42.4062H6.64453V59.5098C6.64453 60.7402 6.85547 61.7539 7.27734 62.5508C7.69922 63.3359 8.29688 63.916 9.07031 64.291C9.84375 64.666 10.7578 64.8535 11.8125 64.8535C12.8672 64.8535 13.7754 64.666 14.5371 64.291C15.3105 63.916 15.9082 63.3359 16.3301 62.5508C16.752 61.7539 16.9629 60.7402 16.9629 59.5098V42.4062ZM54.8318 68H49.365L49.4002 64.502H54.8318C56.4138 64.502 57.738 64.1562 58.8045 63.4648C59.8826 62.7734 60.6912 61.7832 61.2302 60.4941C61.781 59.2051 62.0564 57.6699 62.0564 55.8887V54.5C62.0564 53.1172 61.8982 51.8926 61.5818 50.8262C61.2771 49.7598 60.8201 48.8633 60.2107 48.1367C59.613 47.4102 58.8748 46.8594 57.9959 46.4844C57.1287 46.1094 56.1267 45.9219 54.99 45.9219H49.2595V42.4062H54.99C56.6892 42.4062 58.242 42.6934 59.6482 43.2676C61.0545 43.8301 62.2673 44.6445 63.2869 45.7109C64.3181 46.7773 65.1091 48.0547 65.6599 49.543C66.2107 51.0312 66.4861 52.6953 66.4861 54.5352V55.8887C66.4861 57.7285 66.2107 59.3926 65.6599 60.8809C65.1091 62.3691 64.3181 63.6465 63.2869 64.7129C62.2556 65.7676 61.0252 66.582 59.5955 67.1562C58.1775 67.7188 56.5896 68 54.8318 68ZM51.8084 42.4062V68H47.3962V42.4062H51.8084ZM101.736 45.8164L94.0894 68H89.4663L99.0991 42.4062H102.052L101.736 45.8164ZM108.134 68L100.47 45.8164L100.136 42.4062H103.107L112.775 68H108.134ZM107.765 58.5078V62.0059H93.8433V58.5078H107.765Z" fill="white"/>
</svg>
